# xmcd
#
# Track frame offsets:
#	150
#	18645
#	39607
#	53865
#	67454
#	83485
#	102204
#	109195
#	122894
#	133968
#	151582
#	169666
#	190744
#	206015
#	221699
#	234789
#	254698
#	268028
#	287924
#	325479
#
# Disc length: 4769 seconds
#
# Revision: 1
# Processed by: cddbd v1.5.1PL0 Copyright (c) Steve Scherf et al.
# Submitted via: CDex 1.50Beta5
#
DISCID=30129f14
DTITLE=Radio Cookie Scene - Radio Cookie Scene Vol.33
DYEAR=2003
DGENRE=Alternative
TTITLE0=Death Cab For Cutie/The New Year
TTITLE1=Ancient Greeks/Ask Me A Question About The Atom
TTITLE2=Beat Happening/Angel Gone
TTITLE3=Brilhantines/Amanha
TTITLE4=Penelopes/The Strangest Harvest
TTITLE5=Labrador/I Don't Worry About A Thing
TTITLE6=The Afternoons/Make You Happen
TTITLE7=Supersnuzz/There He Goes
TTITLE8=Farrah/Tongue Tied
TTITLE9=Cork/Water
TTITLE10=Mugison/Sea
TTITLE11=Mice Parade/Two, Three, Fall
TTITLE12=Sodastream/Chorus Line
TTITLE13=Matmos/For The Trees
TTITLE14=Enon/Daughter In The House Of Fools
TTITLE15=ECD/1999
TTITLE16=Los Amigos Invisible/Majunche
TTITLE17=Johnny Conquest/Everybody's Happy (Radio Edit)
TTITLE18=Charles Hayward/My Madness
TTITLE19=Labcry/銀の船
EXTD=
EXTT0=
EXTT1=
EXTT2=
EXTT3=
EXTT4=
EXTT5=
EXTT6=
EXTT7=
EXTT8=
EXTT9=
EXTT10=
EXTT11=
EXTT12=
EXTT13=
EXTT14=
EXTT15=
EXTT16=
EXTT17=
EXTT18=
EXTT19=
PLAYORDER=
